<svg xmlns="http://www.w3.org/2000/svg" style="display:none">
  <!-- TalkXO Case Studies — shared icon sprite. 24x24 viewBox, stroke=currentColor.
       Usage: <svg class="icon"><use href="assets/icons.svg#i-check"/></svg> -->

  <symbol id="i-arrow-right" viewBox="0 0 24 24"><path d="M4 12h16M14 6l6 6-6 6"/></symbol>
  <symbol id="i-chevron-down" viewBox="0 0 24 24"><path d="M6 9l6 6 6-6"/></symbol>
  <symbol id="i-arrow-up-right" viewBox="0 0 24 24"><path d="M6 18 18 6M9 6h9v9"/></symbol>
  <symbol id="i-check" viewBox="0 0 24 24"><path d="M4 12.5 9.5 18 20 6"/></symbol>
  <symbol id="i-check-circle" viewBox="0 0 24 24"><circle cx="12" cy="12" r="9"/><path d="M8 12.5 11 15.5 16 9"/></symbol>
  <symbol id="i-x" viewBox="0 0 24 24"><path d="M6 6l12 12M18 6 6 18"/></symbol>
  <symbol id="i-clock" viewBox="0 0 24 24"><circle cx="12" cy="12" r="9"/><path d="M12 7v5l3.5 2"/></symbol>
  <symbol id="i-zap" viewBox="0 0 24 24"><path d="M12.5 3 5 14h6l-1 7 7.5-11h-6l1-7Z"/></symbol>
  <symbol id="i-users" viewBox="0 0 24 24"><circle cx="9" cy="8" r="3.2"/><path d="M3.5 20c.6-3.4 3-5 5.5-5s4.9 1.6 5.5 5M16 8.3a3 3 0 1 1 0 5.9M19.5 20c-.4-2.4-1.6-3.9-3.3-4.6"/></symbol>
  <symbol id="i-user" viewBox="0 0 24 24"><circle cx="12" cy="8" r="3.6"/><path d="M4.5 20c.8-4 3.6-6 7.5-6s6.7 2 7.5 6"/></symbol>
  <symbol id="i-chart-bar" viewBox="0 0 24 24"><path d="M4 20V10M11 20V4M18 20v-7"/><path d="M2.5 20h19"/></symbol>
  <symbol id="i-trending-up" viewBox="0 0 24 24"><path d="M4 16l6-6 4 4 6-8"/><path d="M14 6h6v6"/></symbol>
  <symbol id="i-mail" viewBox="0 0 24 24"><rect x="3.5" y="5.5" width="17" height="13" rx="1.5"/><path d="M4.5 6.5 12 13l7.5-6.5"/></symbol>
  <symbol id="i-message" viewBox="0 0 24 24"><path d="M4 5.5h16v10.5H9.5L5 20v-4H4Z"/></symbol>
  <symbol id="i-workflow" viewBox="0 0 24 24"><circle cx="5.5" cy="6" r="2.2"/><circle cx="5.5" cy="18" r="2.2"/><circle cx="18.5" cy="12" r="2.2"/><path d="M7.5 6h5a3 3 0 0 1 3 3v0M7.5 18h5a3 3 0 0 0 3-3v0"/></symbol>
  <symbol id="i-database" viewBox="0 0 24 24"><ellipse cx="12" cy="6" rx="7.5" ry="2.6"/><path d="M4.5 6v12c0 1.4 3.4 2.6 7.5 2.6s7.5-1.2 7.5-2.6V6"/><path d="M4.5 12c0 1.4 3.4 2.6 7.5 2.6s7.5-1.2 7.5-2.6"/></symbol>
  <symbol id="i-shield" viewBox="0 0 24 24"><path d="M12 3.5 19 6v6c0 5-3 8-7 8.5-4-.5-7-3.5-7-8.5V6Z"/><path d="M8.5 12l2.5 2.5 4.5-5"/></symbol>
  <symbol id="i-calendar" viewBox="0 0 24 24"><rect x="3.5" y="5" width="17" height="15.5" rx="1.5"/><path d="M3.5 9.5h17M8 3v4M16 3v4"/></symbol>
  <symbol id="i-dollar" viewBox="0 0 24 24"><path d="M12 2.5v19M16.5 6.8c0-1.8-2-3-4.5-3s-4.5 1.4-4.5 3.2c0 4.4 9 2.3 9 6.6 0 1.8-2 3.2-4.5 3.2s-4.5-1.2-4.5-3"/></symbol>
  <symbol id="i-star" viewBox="0 0 24 24"><path d="M12 3.5 14.6 9l6 .9-4.3 4.2 1 6-5.3-2.8-5.3 2.8 1-6L3.4 9.9l6-.9Z"/></symbol>
  <symbol id="i-search" viewBox="0 0 24 24"><circle cx="10.5" cy="10.5" r="6.5"/><path d="M20 20l-5-5"/></symbol>
  <symbol id="i-settings" viewBox="0 0 24 24"><circle cx="12" cy="12" r="3"/><path d="M12 3v2.2M12 18.8V21M21 12h-2.2M5.2 12H3M18 6l-1.6 1.6M7.6 16.4 6 18M18 18l-1.6-1.6M7.6 7.6 6 6"/></symbol>
  <symbol id="i-layers" viewBox="0 0 24 24"><path d="M12 3.5 21 8l-9 4.5L3 8Z"/><path d="M3 12.5 12 17l9-4.5M3 16.5 12 21l9-4.5"/></symbol>
  <symbol id="i-target" viewBox="0 0 24 24"><circle cx="12" cy="12" r="8.5"/><circle cx="12" cy="12" r="4.8"/><circle cx="12" cy="12" r="1.2" fill="currentColor" stroke="none"/></symbol>
  <symbol id="i-quote" viewBox="0 0 24 24"><path d="M5 9.5c0-2.8 1.8-4.5 4.3-5v2.1c-1.2.4-2 1.3-2 2.6h2v5H5Zm9 0c0-2.8 1.8-4.5 4.3-5v2.1c-1.2.4-2 1.3-2 2.6h2v5h-4.3Z"/></symbol>
  <symbol id="i-external-link" viewBox="0 0 24 24"><path d="M9 5H5.5A1.5 1.5 0 0 0 4 6.5v12A1.5 1.5 0 0 0 5.5 20h12a1.5 1.5 0 0 0 1.5-1.5V15M14 4h6v6M20 4l-9 9"/></symbol>
  <symbol id="i-code" viewBox="0 0 24 24"><path d="M8.5 8 4 12.5 8.5 17M15.5 8l4.5 4.5-4.5 4.5M13.5 4.5l-3 15"/></symbol>
  <symbol id="i-plus" viewBox="0 0 24 24"><path d="M12 4v16M4 12h16"/></symbol>
  <symbol id="i-minus" viewBox="0 0 24 24"><path d="M4 12h16"/></symbol>
</svg>
